<?xml version="1.0" encoding="utf-8"?>
<svg xmlns="http://www.w3.org/2000/svg" viewBox="0 0 380.977 178.343" xmlns:bx="https://boxy-svg.com">
  <g transform="matrix(1, 0, 0, 1, -63.754898, -149.734406)">
    <title>Logo</title>
    <g>
      <title>Blue</title>
      <g style="">
        <title>Tentacule</title>
        <path style="stroke: rgb(0, 0, 0); stroke-width: 0px; fill: rgb(61, 217, 255);" d="M 150.365 316.28066666666666 C 154.655 308.88033333333334 163.23499999999999 294.0796666666667 163.34216666666666 274.6673333333333 C 163.44933333333333 255.255 155.08366666666666 231.231 154.5473333333333 212.14049999999997 C 154.011 193.04999999999998 161.304 178.893 171.17100000000002 170.20583333333332 C 181.038 161.51866666666666 193.479 158.30133333333333 203.45333333333335 159.05216666666666 C 213.42766666666668 159.803 220.93533333333335 164.52200000000002 224.79633333333334 170.957 C 228.65733333333333 177.39200000000002 228.87166666666667 185.543 226.83383333333336 186.6155 C 224.79600000000002 187.688 220.506 181.682 212.9985 179.537 C 205.49099999999999 177.39199999999997 194.766 179.10800000000003 187.58016666666666 184.8995 C 180.39433333333332 190.69100000000003 176.74766666666665 200.558 181.03766666666664 217.07450000000003 C 185.32766666666666 233.591 197.55433333333335 256.757 199.80683333333334 275.633 C 202.05933333333334 294.509 194.33766666666668 309.09499999999997 190.4766666666667 316.2808333333333 C 186.61566666666667 323.46666666666664 186.61533333333333 323.25233333333335 179.85850000000002 323.25233333333335 C 173.1016666666667 323.25233333333335 159.58833333333334 323.46666666666664 152.83166666666668 323.5738333333333 C 146.075 323.681 146.075 323.681 146.07500000000002 323.681 C 146.075 323.681 146.075 323.681 146.07500000000002 323.681 C 146.075 323.681 146.075 323.681 150.365 316.28066666666666" bx:d="M 146.075 323.681 U 171.815 279.279 U 146.718 207.207 U 168.597 164.736 U 205.92 155.084 U 228.443 169.241 U 229.086 193.694 U 216.216 175.676 U 184.041 180.824 U 173.101 210.425 U 209.781 279.923 U 186.616 323.681 U 186.615 323.038 U 146.075 323.681 U 146.075 323.681 U 146.075 323.681 Z 1@b936177d"/>
        <ellipse style="stroke: rgb(0, 0, 0); fill: rgb(61, 217, 255); stroke-width: 0px; transform-box: fill-box; transform-origin: 50% 50%;" cx="198.152" cy="199.381" rx="3.247" ry="6.226" transform="matrix(0.992617, 0.121288, -0.121287, 0.992617, -8.962105, 2.880311)"/>
        <ellipse style="stroke: rgb(0, 0, 0); fill: rgb(61, 217, 255); stroke-width: 0; transform-origin: 198.152px 199.381px;" cx="198.152" cy="199.381" rx="3.863" ry="7.407" transform="matrix(0.952355, -0.304993, 0.304994, 0.952354, -5.790281, 23.550425)"/>
        <ellipse style="stroke: rgb(0, 0, 0); fill: rgb(61, 217, 255); stroke-width: 0; transform-origin: 198.152px 199.381px;" cx="198.152" cy="199.381" rx="4.728" ry="9.066" transform="matrix(0.906923, -0.421297, 0.421298, 0.906922, 2.691684, 43.634832)"/>
        <ellipse style="stroke: rgb(0, 0, 0); fill: rgb(61, 217, 255); stroke-width: 0; transform-origin: 198.152px 199.381px;" cx="198.152" cy="199.381" rx="4.562" ry="8.748" transform="matrix(0.989405, -0.145182, 0.145183, 0.989405, 9.572981, 67.000615)"/>
        <ellipse style="stroke: rgb(0, 0, 0); fill: rgb(61, 217, 255); stroke-width: 0; transform-origin: 198.152px 199.381px;" cx="198.152" cy="199.381" rx="4.801" ry="9.206" transform="matrix(0.998123, 0.061241, -0.06124, 0.998123, 10.533316, 90.685685)"/>
        <ellipse style="stroke: rgb(0, 0, 0); fill: rgb(61, 217, 255); stroke-width: 0; transform-origin: 198.152px 199.381px;" cx="198.152" cy="199.381" rx="2.914" ry="5.587" transform="matrix(0.229359, 0.973342, -0.973341, 0.229361, 1.219815, -10.544437)"/>
      </g>
      <g transform="matrix(1, 0, 0, 1, 18.754894, 9.147063)" style="">
        <title>Invite</title>
        <rect x="86.058" y="275.585" width="20" height="90" style="stroke: rgb(0, 0, 0); stroke-width: 0px; fill: rgb(61, 217, 255); transform-box: fill-box; transform-origin: 50% 50%;" rx="5" ry="5" transform="matrix(0.707107, 0.707107, -0.707107, 0.707107, -7.167106, -61.694108)"/>
        <rect x="86.058" y="275.585" width="20" height="90" style="stroke: rgb(0, 0, 0); stroke-width: 0; fill: rgb(61, 217, 255); transform-origin: 96.058px 320.585px;" rx="5" ry="5" transform="matrix(0.707107, -0.707107, 0.707107, 0.707107, -7.167112, -111.694107)"/>
      </g>
    </g>
    <g>
      <title>MD</title>
      <text style="fill: rgb(235, 235, 235); font-family: Inconsolata; font-size: 92px; font-weight: 545; stroke-width: 0px; text-anchor: middle; white-space: pre;" x="298.244" y="233.919">#</text>
      <rect x="330" y="200" width="110" height="24" style="stroke: rgb(0, 0, 0); stroke-width: 0px; fill: rgb(235, 235, 235);" rx="5" ry="5"/>
      <rect x="270" y="240" width="170" height="24" style="stroke: rgb(0, 0, 0); stroke-width: 0; fill: rgb(235, 235, 235);" rx="5" ry="5"/>
      <rect x="270" y="280" width="122" height="24" style="stroke: rgb(0, 0, 0); stroke-width: 0; fill: rgb(235, 235, 235);" rx="5" ry="5"/>
    </g>
  </g>
  <defs>
    <style bx:fonts="Inconsolata">@import url(https://fonts.googleapis.com/css2?family=Inconsolata%3Aital%2Cwght%400%2C200..900&amp;display=swap);</style>
    <bx:export>
      <bx:file format="svg" path="octomark-logo.svg" normalization="{&quot;convertTextsToPaths&quot;:true}"/>
      <bx:file format="png" path="octomark-logo.png" dpi="200" antialiasing="true">
        <bx:variant scale="2" suffix="@2x"/>
        <bx:variant scale="4" suffix="@4x"/>
      </bx:file>
    </bx:export>
  </defs>
</svg>